<svg width="24" height="24" viewBox="0 0 24 24" fill="none" xmlns="http://www.w3.org/2000/svg">
<path d="M21.408 11.412L12.578 2.58195C12.208 2.21195 11.698 2.00195 11.168 2.00195H3.99805C2.89805 2.00195 1.99805 2.90195 1.99805 4.00195V11.172C1.99805 11.702 2.20805 12.212 2.58805 12.582L11.418 21.412C12.198 22.192 13.468 22.192 14.248 21.412L21.418 14.242C22.198 13.462 22.198 12.202 21.408 11.412ZM12.828 20.002L3.99805 11.172V4.00195H11.168L19.998 12.832L12.828 20.002Z" fill="#A0A0A0"/>
<path d="M6.49805 8.00195C7.32647 8.00195 7.99805 7.33038 7.99805 6.50195C7.99805 5.67353 7.32647 5.00195 6.49805 5.00195C5.66962 5.00195 4.99805 5.67353 4.99805 6.50195C4.99805 7.33038 5.66962 8.00195 6.49805 8.00195Z" fill="#A0A0A0"/>
</svg>
